<svg width="95" height="36" viewBox="0 0 95 36" fill="none" xmlns="http://www.w3.org/2000/svg">
<g clip-path="url(#clip0)">
<circle cx="66.786" cy="29.5155" r="0.622271" stroke="black" stroke-width="0.327511"/>
<path d="M70.1815 31.5701H70.5857C70.5544 30.8756 69.9538 30.362 69.103 30.362C68.2589 30.362 67.6091 30.8689 67.6091 31.6058C67.6091 32.1931 68.0244 32.5615 68.7412 32.7737L69.2883 32.9344C69.8555 33.0997 70.2441 33.3118 70.2441 33.7785C70.2441 34.3279 69.7461 34.6963 69.0628 34.6963C68.4465 34.6963 67.9641 34.3993 67.9195 33.8567H67.4907C67.5399 34.5802 68.1294 35.0782 69.0628 35.0782C70.0542 35.0782 70.6482 34.5177 70.6482 33.7852C70.6482 33.026 69.9873 32.7223 69.4067 32.5593L68.9243 32.4209C68.48 32.2958 68.0133 32.0703 68.0133 31.5879C68.0133 31.0967 68.4532 30.7371 69.0918 30.7371C69.697 30.7371 70.1302 31.0609 70.1815 31.5701ZM71.6531 35H74.3506V34.6249H72.0707V32.8987H74.1653V32.5236H72.0707V30.8019H74.3059V30.4268H71.6531V35ZM75.3867 35H78.0842V34.6249H75.8043V32.8987H77.8989V32.5236H75.8043V30.8019H78.0396V30.4268H75.3867V35ZM79.1203 35H80.7482C81.7308 35 82.1841 34.4931 82.1841 33.8009C82.1841 33.1064 81.7241 32.6888 81.2797 32.6576V32.6218C81.6883 32.5124 82.0054 32.1953 82.0054 31.6237C82.0054 30.9359 81.5566 30.4268 80.6634 30.4268H79.1203V35ZM79.5379 34.6249V32.863H80.7661C81.3802 32.863 81.7844 33.2783 81.7844 33.8009C81.7844 34.2743 81.4539 34.6249 80.7482 34.6249H79.5379ZM79.5379 32.4923V30.8019H80.6634C81.2886 30.8019 81.6057 31.1391 81.6057 31.6237C81.6057 32.1261 81.2417 32.4923 80.7013 32.4923H79.5379ZM83.1917 35H85.8892V34.6249H83.6093V32.8987H85.7039V32.5236H83.6093V30.8019H85.8446V30.4268H83.1917V35ZM90.5071 31.8559C90.3575 31.014 89.6697 30.3642 88.6961 30.3642C87.5417 30.3642 86.7199 31.282 86.7199 32.7134C86.7199 34.1447 87.5417 35.0625 88.6961 35.0625C89.6697 35.0625 90.3575 34.4105 90.5071 33.5709H90.0873C89.96 34.1983 89.4129 34.6695 88.6961 34.6695C87.8297 34.6695 87.1241 33.984 87.1241 32.7134C87.1241 31.4473 87.8297 30.7572 88.6961 30.7572C89.4129 30.7572 89.96 31.2306 90.0873 31.8559H90.5071ZM91.488 35H91.9056V33.515L92.5152 32.8317L94.21 35H94.7192L92.7742 32.5414L94.7281 30.4268H94.1788L91.9458 32.8898H91.9056V30.4268H91.488V35Z" fill="black"/>
<path d="M30.3934 11.0938C30.3934 14.6719 29.2216 17.4141 26.8778 19.3203C24.5341 21.2266 21.1981 22.1797 16.87 22.1797H13.3075V35H7.70594V0.734375H17.5731C21.8544 0.734375 25.0575 1.60938 27.1825 3.35938C29.3231 5.10938 30.3934 7.6875 30.3934 11.0938ZM13.3075 17.4688H16.2841C19.1591 17.4688 21.2684 16.9688 22.6122 15.9688C23.9559 14.9688 24.6278 13.4062 24.6278 11.2812C24.6278 9.3125 24.0262 7.84375 22.8231 6.875C21.62 5.90625 19.745 5.42188 17.1981 5.42188H13.3075V17.4688ZM53.5 35H34.1172V0.734375H53.5V5.46875H39.7188V14.7969H52.6328V19.4844H39.7188V30.2422H53.5V35ZM80.4972 11.0938C80.4972 14.6719 79.3253 17.4141 76.9816 19.3203C74.6378 21.2266 71.3019 22.1797 66.9738 22.1797H63.4113V35H57.8097V0.734375H67.6769C71.9581 0.734375 75.1613 1.60938 77.2863 3.35938C79.4269 5.10938 80.4972 7.6875 80.4972 11.0938ZM63.4113 17.4688H66.3878C69.2628 17.4688 71.3722 16.9688 72.7159 15.9688C74.0597 14.9688 74.7316 13.4062 74.7316 11.2812C74.7316 9.3125 74.13 7.84375 72.9269 6.875C71.7238 5.90625 69.8488 5.42188 67.3019 5.42188H63.4113V17.4688Z" fill="black"/>
</g>
<defs>
<clipPath id="clip0">
<rect width="95" height="36" fill="white"/>
</clipPath>
</defs>
</svg>
