<svg width="221" height="50" viewBox="0 0 221 50" fill="none" xmlns="http://www.w3.org/2000/svg">
<g clip-path="url(#clip0)">
<circle cx="6" cy="6" r="4.75" stroke="black" stroke-width="2.5"/>
<path d="M31.919 21.8182H35.0043C34.7656 16.517 30.1804 12.5966 23.6861 12.5966C17.2429 12.5966 12.2827 16.4659 12.2827 22.0909C12.2827 26.5739 15.4531 29.3864 20.9247 31.0057L25.1009 32.233C29.4304 33.4943 32.3963 35.1136 32.3963 38.6761C32.3963 42.8693 28.5952 45.6818 23.3793 45.6818C18.6747 45.6818 14.9929 43.4148 14.652 39.2727H11.3793C11.7543 44.7955 16.2543 48.5966 23.3793 48.5966C30.9474 48.5966 35.4815 44.3182 35.4815 38.7273C35.4815 32.9318 30.4361 30.6136 26.0043 29.3693L22.3224 28.3125C18.9304 27.358 15.3679 25.6364 15.3679 21.9545C15.3679 18.2045 18.7259 15.4602 23.6009 15.4602C28.2202 15.4602 31.527 17.9318 31.919 21.8182ZM43.152 48H63.7429V45.1364H46.3395V31.9602H62.3281V29.0966H46.3395V15.9545H63.402V13.0909H43.152V48ZM71.652 48H92.2429V45.1364H74.8395V31.9602H90.8281V29.0966H74.8395V15.9545H91.902V13.0909H71.652V48ZM100.152 48H112.578C120.078 48 123.538 44.1307 123.538 38.8466C123.538 33.5455 120.027 30.358 116.635 30.1193V29.8466C119.754 29.0114 122.175 26.5909 122.175 22.2273C122.175 16.9773 118.749 13.0909 111.93 13.0909H100.152V48ZM103.339 45.1364V31.6875H112.714C117.402 31.6875 120.487 34.858 120.487 38.8466C120.487 42.4602 117.964 45.1364 112.578 45.1364H103.339ZM103.339 28.858V15.9545H111.93C116.703 15.9545 119.124 18.5284 119.124 22.2273C119.124 26.0625 116.345 28.858 112.22 28.858H103.339ZM131.23 48H151.821V45.1364H134.418V31.9602H150.406V29.0966H134.418V15.9545H151.48V13.0909H131.23V48ZM187.071 24C185.929 17.5739 180.679 12.6136 173.247 12.6136C164.435 12.6136 158.162 19.6193 158.162 30.5455C158.162 41.4716 164.435 48.4773 173.247 48.4773C180.679 48.4773 185.929 43.5 187.071 37.0909H183.866C182.895 41.8807 178.719 45.4773 173.247 45.4773C166.634 45.4773 161.247 40.2443 161.247 30.5455C161.247 20.8807 166.634 15.6136 173.247 15.6136C178.719 15.6136 182.895 19.2273 183.866 24H187.071ZM194.558 48H197.746V36.6648L202.399 31.4489L215.337 48H219.223L204.376 29.233L219.291 13.0909H215.098L198.053 31.892H197.746V13.0909H194.558V48Z" fill="black"/>
</g>
<defs>
<clipPath id="clip0">
<rect width="221" height="50" fill="white"/>
</clipPath>
</defs>
</svg>
